<?xml version="1.0" encoding="UTF-8" standalone="no"?>
<!-- Created with Inkscape (http://www.inkscape.org/) -->

<svg
   version="1.1"
   id="svg1"
   width="72.639999"
   height="66.879997"
   viewBox="0 0 72.639999 66.879997"
   sodipodi:docname="launcher-rune.svg"
   inkscape:version="1.4.3 (0d15f75042, 2025-12-25)"
   xmlns:inkscape="http://www.inkscape.org/namespaces/inkscape"
   xmlns:sodipodi="http://sodipodi.sourceforge.net/DTD/sodipodi-0.dtd"
   xmlns="http://www.w3.org/2000/svg"
   xmlns:svg="http://www.w3.org/2000/svg">
  <defs
     id="defs1" />
  <sodipodi:namedview
     id="namedview1"
     pagecolor="#505050"
     bordercolor="#ffffff"
     borderopacity="1"
     inkscape:showpageshadow="0"
     inkscape:pageopacity="0"
     inkscape:pagecheckerboard="1"
     inkscape:deskcolor="#505050"
     inkscape:zoom="2.8284271"
     inkscape:cx="34.471456"
     inkscape:cy="63.816387"
     inkscape:window-width="2560"
     inkscape:window-height="1050"
     inkscape:window-x="0"
     inkscape:window-y="0"
     inkscape:window-maximized="1"
     inkscape:current-layer="layer1" />
  <g
     inkscape:groupmode="layer"
     id="layer1"
     inkscape:label="Image 1">
    <path
       id="path20"
       style="fill:#ffffff"
       d="M 3.4863281,64.876953 A 33.499184,31.024309 0 0 1 2.6523438,57.99414 33.499184,31.024309 0 0 1 36.150391,26.970703 a 33.499184,31.024309 0 0 1 33.5,31.023437 33.499184,31.024309 0 0 1 -0.691407,6.267578 A 35.090176,39.686367 0 0 0 36.328125,39.167968 35.090176,39.686367 0 0 0 3.4863281,64.876953 Z" />
    <path
       style="fill:#ffffff"
       d="m 28.461048,18.915106 0.176777,34.471456 6.894291,9.899495 6.363961,-9.369165 -0.53033,-35.885669 9.899495,-2.474874 -14.672466,-3.358757 -1.767767,-8.6620581 -2.12132,8.6620581 -13.788583,3.358757 z"
       id="path21" />
  </g>
</svg>
