<?xml version="1.0" encoding="UTF-8" standalone="no"?>
<!-- Created with Inkscape (http://www.inkscape.org/) -->

<svg
   version="1.1"
   id="svg1"
   width="591.72412"
   height="554.05469"
   viewBox="0 0 591.72412 554.05469"
   xmlns="http://www.w3.org/2000/svg"
   xmlns:svg="http://www.w3.org/2000/svg">
  <defs
     id="defs1" />
  <g
     id="g1"
     transform="translate(-47.086799,-53.36504)">
    <rect
       style="fill:#015bbb"
       id="rect1"
       width="591.72412"
       height="554.05469"
       x="47.0868"
       y="53.36504"
       rx="75"
       ry="75" />
    <path
       d="m 159.40787,318.52086 q 0.53333,4.53334 5.60001,6.13334 2.13333,0.8 6.13334,2.13333 4,1.06667 5.33334,1.86667 1.33333,1.33334 1.33333,2.66667 0,2.93334 -6.13334,12.26669 -4.26667,6.4 -5.86667,8.26667 -1.33334,1.86667 -3.20001,1.86667 -1.6,0 -2.93333,-1.06667 -3.73334,-2.4 -12.80002,-5.86667 -9.06668,-3.73334 -13.86668,-3.2 -4.53334,0.53333 -6.93334,2.13333 -2.40001,1.6 -4.26668,3.73334 -1.6,2.13333 -2.66667,2.13333 -1.33333,0 -1.33333,-2.93333 0,-4.00001 2.13333,-9.06668 1.86667,-4 5.33334,-9.86668 3.73334,-6.13334 5.60001,-7.46667 3.73334,-2.40001 3.73334,-7.46668 0,-1.86667 -0.53334,-5.60001 -0.8,-4 -0.8,-8.26667 l 0.53334,-15.20002 q 0,-4.26667 -0.53334,-9.60001 -0.26666,-6.40001 -1.6,-9.33335 -1.33333,-3.2 -4,-6.13334 -4.53334,-4.80001 -7.73335,-6.93334 -3.2,-2.13334 -3.73333,-2.93334 -1.06667,-1.33333 1.86667,-3.46667 3.2,-2.13334 7.73334,-3.46667 0.53333,-0.26667 2.13333,-0.26667 h 2.66667 q 2.40001,0 2.40001,-1.33333 0,-1.6 0.53333,-5.86668 0.8,-4.26667 0.53333,-5.33334 -1.6,-10.40001 -1.6,-13.06668 0,-2.13333 0.26667,-5.33334 0.53333,-3.2 0.26667,-8.53334 -0.26667,-6.13334 -4.80001,-9.33335 -4.53334,-3.2 -10.66668,-3.2 -1.86667,0 -1.86667,-2.13334 0,-2.93333 5.33334,-14.40001 2.40001,-5.33334 6.13334,-7.46668 3.73334,-2.4 7.46668,-2.4 1.86667,0 4,0.53333 3.20001,1.06667 9.60002,4.80001 2.66667,1.33333 5.06667,4.53334 2.4,2.93333 2.93334,2.93333 1.06666,0 8,-8.80001 5.86668,-8.00001 14.66669,-8.00001 4,0 7.73334,1.6 3.73334,1.33334 5.60001,2.93334 6.93334,5.33334 10.66668,9.60001 3.73334,4.00001 6.66667,8.26668 2.93334,4 4.53334,6.13334 2.66667,3.73334 4.26667,9.60001 1.60001,5.60001 2.13334,11.20002 0.8,6.66667 0.8,12.80001 0,15.73335 -4.53334,25.8667 -4.26667,10.13335 -12.26668,18.40002 l -6.13334,6.93334 q -4.80001,5.86668 -8.26668,9.33335 -3.46667,3.2 -6.4,3.46667 -3.46668,0.53333 -11.46669,-1.6 -11.73334,-4.00001 -12.80001,-4.00001 -1.06667,0 -1.06667,6.93334 0,3.73334 0.26667,4.26668 1.33333,4.26667 1.33333,8.26667 0,2.40001 -0.53333,5.60001 -0.26667,3.2 -0.26667,5.86667 0,3.46667 0.26667,5.86668 z m -1.06667,-88.53344 q 0,7.46667 0,9.86668 0.26667,2.4 0.26667,3.2 0.26667,1.33333 0.26667,6.66667 0,4.80001 1.6,5.86668 5.06667,3.73334 12.26668,6.93334 7.20001,3.2 10.93335,2.93334 2.4,-0.26667 5.06667,-4.26668 2.66667,-4 4.26667,-11.20001 1.86667,-7.20001 1.86667,-16.53335 0,-3.20001 -0.53333,-9.60001 -1.60001,-13.86669 -5.33334,-20.2667 -1.33334,-2.13333 -3.20001,-3.46667 -1.6,-1.6 -3.46667,-2.66667 -1.6,-1.06666 -2.93334,-1.86667 -1.86667,-1.06666 -4.53334,-3.2 -0.8,-0.53333 -3.46667,-2.13334 -2.4,-1.86666 -4,-2.13333 -1.33334,-0.53334 -2.4,-0.53334 -2.40001,0.26667 -4.26668,4.80001 -1.6,4.53334 -1.6,6.66668 0,2.13333 0.53334,6.66667 0.53333,4.26667 0.53333,8.00001 0,7.20001 -1.6,13.06668 -0.26667,1.06667 -0.26667,3.20001 z"
       id="text1"
       style="font-size:266.667px;font-family:'Black Takora';-inkscape-font-specification:'Black Takora';white-space:pre;fill:#ffffff"
       transform="matrix(2.242236,0,0,1.961952,-42.580438,-162.90203)"
       aria-label="P" />
  </g>
</svg>
